<svg height="512pt" viewBox="0 0 512 512.0001" width="512pt" xmlns="http://www.w3.org/2000/svg"><path d="m443.710938 341.332031c-13.816407-.046875-27.535157 2.304688-40.542969 6.957031-57.617188-62.292968-44.375-152.746093-41.082031-170.539062 1.5625-8.289062-1.0625-16.816406-7.011719-22.792969l-52.445313-52.695312c-8.449218-7.957031-21.085937-9.515625-31.214844-3.847657l-1.238281.605469c-26.019531 12.5625-55.46875 26.804688-76.433593 5.878907-22.800782-22.808594-27.117188-41.8125-13.984376-61.703126 6.753907-10.261718 5.417969-23.847656-3.210937-32.597656l-3.0625-3.070312c-4.761719-4.828125-11.265625-7.542969-18.046875-7.527344-6.789062-.0195312-13.300781 2.6875-18.074219 7.519531l-104.714843 105.1875-22.527344 22.625c-12.910156 13.003907-13.546875 33.789063-1.457032 47.5625 2.910157 3.285157 292.300782 329.105469 349.710938 329.105469h51.199219c2.144531 0 4.183593-.066406 6.214843-.136719l1.707032-.042969h.066406c66.851562-2.03125 94.414062-29.558593 94.414062-93.6875 0-37.09375-27.433593-76.800781-68.265624-76.800781zm-85.335938 153.601563c-35.839844 0-240.441406-214.117188-336.921875-323.34375-5.332031-6.027344-5.910156-14.898438-1.40625-21.566406.632813-.949219 1.359375-1.835938 2.167969-2.644532l4.46875-4.488281c1.347656 5.332031 3.953125 10.265625 7.597656 14.386719 47.203125 53.445312 239.785156 263.773437 319.09375 316.058594.71875.511718 13.167969 9.488281 32.820312 21.597656zm61.097656-.203125c-19.386718-10.855469-38.210937-22.683594-56.402344-35.441407-78.082031-51.445312-269.109374-260.222656-316-313.316406-6.148437-7.011718-5.816406-17.589844.761719-24.203125.125-.125.1875-.296875.304688-.425781l101.335937-101.777344c1.574219-1.59375 3.726563-2.492187 5.972656-2.484375 2.242188-.003906 4.394532.886719 5.972657 2.476563l3.0625 3.082031c2.929687 3.003906 3.363281 7.648437 1.042969 11.144531-17.699219 26.777344-12.273438 54.765625 16.152343 83.179688 29.507813 29.511718 67.898438 10.949218 95.921875-2.558594l1.230469-.597656c1.785156-.851563 7.867187-3.328125 11.707031.53125l52.480469 52.65625c1.992187 2.003906 2.863281 4.859375 2.328125 7.628906-3.523438 18.960938-17.355469 113.988281 42.546875 182.128906-8.210937 6.359375-15.035156 14.332032-20.050781 23.433594-2.105469 4.214844-.394532 9.34375 3.824218 11.449219 4.214844 2.105469 9.34375.394531 11.449219-3.820313 5.070313-9.140625 12.601563-16.671875 21.742188-21.734375 12.269531-5.261719 25.507812-7.878906 38.855469-7.683593 30.171874 0 51.199218 31.480468 51.199218 59.734374 0 53.605469-20.011718 74.472657-75.4375 76.597657zm0 0"/><path d="m324.242188 179.199219c0 4.714843-3.820313 8.535156-8.53125 8.535156-4.714844 0-8.535157-3.820313-8.535157-8.535156 0-4.710938 3.820313-8.53125 8.535157-8.53125 4.710937 0 8.53125 3.820312 8.53125 8.53125zm0 0"/><path d="m324.242188 221.867188c0 4.710937-3.820313 8.53125-8.53125 8.53125-4.714844 0-8.535157-3.820313-8.535157-8.53125 0-4.714844 3.820313-8.535157 8.535157-8.535157 4.710937 0 8.53125 3.820313 8.53125 8.535157zm0 0"/><path d="m68.242188 443.734375c0 4.710937 3.820312 8.53125 8.535156 8.53125h68.265625c4.710937 0 8.53125-3.820313 8.53125-8.53125 0-4.714844-3.820313-8.535156-8.53125-8.535156h-68.265625c-4.714844 0-8.535156 3.820312-8.535156 8.535156zm0 0"/><path d="m93.84375 401.066406h-68.269531c-4.710938 0-8.53125 3.820313-8.53125 8.535156 0 4.710938 3.820312 8.53125 8.53125 8.53125h68.269531c4.710938 0 8.53125-3.820312 8.53125-8.53125 0-4.714843-3.820312-8.535156-8.53125-8.535156zm0 0"/></svg>