<?xml version="1.0" encoding="iso-8859-1"?>
<!-- Generator: Adobe Illustrator 19.0.0, SVG Export Plug-In . SVG Version: 6.00 Build 0)  -->
<svg version="1.1" id="Capa_1" xmlns="http://www.w3.org/2000/svg" xmlns:xlink="http://www.w3.org/1999/xlink" x="0px" y="0px"
	 viewBox="0 0 511.999 511.999" style="enable-background:new 0 0 511.999 511.999;" xml:space="preserve">
<g>
	<g>
		<path d="M307.604,427.309v-11c0-12.823-2.035-25.179-5.783-36.771c13.233-6.642,21.815-20.264,21.815-35.372
			c0-21.823-17.755-39.578-39.578-39.578c-11.109,0-21.564,4.655-28.996,12.665c-19.171-13.047-42.307-20.681-67.194-20.681
			c-24.882,0-48.015,7.632-67.184,20.674c-7.442-7.995-17.982-12.658-29.006-12.658c-21.823,0-39.578,17.755-39.578,39.578
			c0,15.174,8.565,28.745,21.814,35.376c-3.748,11.59-5.782,23.944-5.782,36.767v10.997c-42.551,8.726-64.127,21.2-64.127,37.098
			c0,14.997,19.346,26.996,57.501,35.669c4.053,0.921,8.269,1.792,12.625,2.612c0.001,0,0.002,0,0.004,0.001
			c32.007,6.031,71.795,9.312,113.734,9.312c19.925,0,39.49-0.742,58.149-2.207c4.137-0.324,7.228-3.942,6.904-8.079
			c-0.326-4.138-3.948-7.259-8.08-6.904c-18.269,1.434-37.437,2.16-56.973,2.16c-38.349,0-74.746-2.786-104.707-7.93v-72.73
			c0-57.735,46.971-104.707,104.707-104.707s104.707,46.972,104.707,104.707v72.728c-7.751,1.329-16.322,2.561-25.776,3.653
			c-4.123,0.476-7.079,4.204-6.603,8.327c0.443,3.831,3.691,6.654,7.456,6.654c0.288,0,0.579-0.017,0.872-0.051
			c11.721-1.354,22.707-3.001,32.817-4.896c0.134-0.022,0.268-0.045,0.399-0.075c14.874-2.804,27.821-6.151,38.249-9.935
			c21.359-7.749,31.743-17.011,31.743-28.311C371.731,448.526,350.149,436.048,307.604,427.309z M68.131,486.145
			c-1.11-0.238-2.209-0.482-3.295-0.728c-37.574-8.539-45.802-18.063-45.802-21.013c0-3.017,9.242-13.152,49.097-21.736V486.145z
			 M79.479,365.465c-7.538-4.307-12.35-12.346-12.35-21.298c0-13.537,11.013-24.548,24.549-24.548c6.39,0,12.517,2.529,17.061,6.91
			C96.514,337.316,86.503,350.552,79.479,365.465z M296.255,365.463c-7.024-14.911-17.035-28.148-29.258-38.933
			c4.535-4.387,10.621-6.911,17.061-6.911c13.536,0,24.549,11.012,24.549,24.549C308.606,353.082,303.784,361.148,296.255,365.463z
			 M307.604,486.136v-43.473c39.949,8.606,49.097,18.77,49.097,21.741C356.701,468.675,343.568,478.338,307.604,486.136z"/>
	</g>
</g>
<g>
	<g>
		<path d="M220.933,368.716h-1.002c-4.15,0-7.515,3.364-7.515,7.515c0,4.151,3.365,7.515,7.515,7.515h1.002
			c4.15,0,7.515-3.364,7.515-7.515C228.448,372.08,225.083,368.716,220.933,368.716z"/>
	</g>
</g>
<g>
	<g>
		<path d="M156.806,368.716h-1.002c-4.15,0-7.515,3.364-7.515,7.515c0,4.151,3.365,7.515,7.515,7.515h1.002
			c4.15,0,7.515-3.364,7.515-7.515C164.321,372.08,160.956,368.716,156.806,368.716z"/>
	</g>
</g>
<g>
	<g>
		<path d="M243.114,446.063c-1.275-3.949-5.511-6.121-9.461-4.841c-3.576,1.155-10.628,2.67-18.474,0.295l-14.082-9.388
			c-0.545-0.641-1.049-1.281-1.515-1.913c11.734-3.404,19.849-11.823,19.849-21.922c0-13.204-13.863-23.547-31.562-23.547
			s-31.562,10.342-31.562,23.547c0,10.099,8.115,18.519,19.849,21.922c-0.466,0.632-0.97,1.272-1.515,1.913l-14.082,9.388
			c-7.848,2.375-14.899,0.859-18.475-0.295c-3.955-1.281-8.188,0.892-9.463,4.841c-1.276,3.95,0.892,8.185,4.842,9.461
			c3.219,1.04,8.355,2.279,14.544,2.279c2.003,0,4.12-0.138,6.313-0.447l6.225,24.902c0.836,3.346,3.842,5.692,7.29,5.692h32.063
			c3.448,0,6.454-2.347,7.29-5.692l6.225-24.902c2.193,0.309,4.31,0.447,6.313,0.447c6.186,0,11.325-1.239,14.545-2.279
			C242.222,454.248,244.389,450.013,243.114,446.063z M180.353,448.374v24.548h-2.649l-5.046-20.184
			c2.911-1.529,5.479-3.298,7.742-5.187C180.371,447.822,180.353,448.095,180.353,448.374z M171.335,408.295
			c0-3.473,6.441-8.517,16.533-8.517c10.092,0,16.533,5.044,16.533,8.517c0,3.473-6.441,8.517-16.533,8.517
			C177.776,416.811,171.335,411.767,171.335,408.295z M198.032,472.922h-2.649v-24.548c0-0.279-0.018-0.552-0.047-0.823
			c2.263,1.89,4.832,3.658,7.742,5.187L198.032,472.922z"/>
	</g>
</g>
<g>
	<g>
		<path d="M503.046,210.197L335.492,149.46c-3.903-1.419-8.211,0.601-9.626,4.504c-1.415,3.902,0.602,8.211,4.504,9.625
			l167.553,60.737c4.058,1.474,8.632-0.892,9.797-5.038C508.771,215.552,506.693,211.519,503.046,210.197z"/>
	</g>
</g>
<g>
	<g>
		<path d="M503.047,261.355L255.42,171.592c1.579-5.283,3.304-10.523,5.183-15.707c1.879-5.183,3.911-10.311,6.085-15.38
			l38.327,13.893c4.058,1.474,8.633-0.892,9.798-5.038c1.05-3.736-1.029-7.769-4.676-9.091l-37.142-13.465
			c4.936-10.032,10.452-19.782,16.519-29.183l16.193,5.87c3.854,1.396,8.232-0.661,9.626-4.504l16.39-45.216
			c1.414-3.902-0.602-8.211-4.504-9.625L206.644,0.437c-3.853-1.394-8.232,0.659-9.626,4.504l-16.39,45.216
			c-1.415,3.902,0.602,8.211,4.504,9.625l16.193,5.87c-2.654,21.574-7.738,42.84-15.138,63.255
			c-7.402,20.416-17.119,39.993-28.91,58.263l-16.194-5.871c-3.853-1.395-8.232,0.659-9.626,4.504l-16.39,45.216
			c-1.415,3.902,0.602,8.211,4.504,9.625l120.575,43.708c3.853,1.4,8.231-0.656,9.626-4.504l16.39-45.215
			c1.415-3.902-0.602-8.211-4.504-9.625l-16.197-5.872c1.366-11.105,3.381-22.124,6.02-32.989l246.444,89.336
			c4.058,1.474,8.632-0.892,9.797-5.038C508.773,266.71,506.694,262.677,503.047,261.355z M197.317,48.214l11.269-31.085
			l106.445,38.586L303.763,86.8L197.317,48.214z M249.47,236.579l-11.269,31.084l-106.445-38.586l11.269-31.085L249.47,236.579z
			 M246.472,150.763c-7.397,20.405-12.592,41.603-15.488,63.129l-59.233-21.472c11.573-18.385,21.168-37.988,28.563-58.389
			c7.395-20.398,12.589-41.605,15.485-63.129l59.24,21.474C263.468,110.758,253.868,130.363,246.472,150.763z"/>
	</g>
</g>
<g>
</g>
<g>
</g>
<g>
</g>
<g>
</g>
<g>
</g>
<g>
</g>
<g>
</g>
<g>
</g>
<g>
</g>
<g>
</g>
<g>
</g>
<g>
</g>
<g>
</g>
<g>
</g>
<g>
</g>
</svg>
