<svg xmlns="http://www.w3.org/2000/svg" height="880pt" version="1.1" viewBox="0 0 880.00218 880" width="880pt">
<g id="surface1">
<path d="M 183.335938 821.324219 C 114.488281 821.324219 58.675781 765.507812 58.675781 696.652344 C 58.675781 627.808594 114.488281 571.992188 183.335938 571.992188 C 252.191406 571.992188 308.003906 627.808594 308.003906 696.652344 C 307.925781 765.476562 252.15625 821.246094 183.335938 821.324219 Z M 183.335938 601.324219 C 130.683594 601.324219 88.011719 644.003906 88.011719 696.652344 C 88.011719 749.308594 130.695312 791.988281 183.335938 791.988281 C 235.984375 791.988281 278.667969 749.308594 278.667969 696.652344 C 278.605469 644.03125 235.960938 601.394531 183.335938 601.324219 Z M 183.335938 601.324219 " style=" stroke:none;fill-rule:nonzero;fill:rgb(0%,0%,0%);fill-opacity:1;" />
<path d="M 180.832031 879.988281 C 81.113281 880.140625 0.152344 799.417969 0 699.703125 C -0.00390625 694.976562 0.171875 690.253906 0.535156 685.542969 C 4.496094 641.082031 24.277344 599.515625 56.269531 568.382812 L 611.246094 13.402344 C 629.128906 -4.46875 658.109375 -4.46875 675.984375 13.417969 C 680.234375 17.664062 683.605469 22.710938 685.902344 28.261719 C 693.199219 45.339844 689.257812 65.144531 675.984375 78.121094 L 589.761719 164.355469 C 583.351562 170.78125 583.351562 181.1875 589.761719 187.613281 C 596.269531 193.832031 606.515625 193.832031 613.027344 187.613281 L 784.140625 16.457031 C 806.070312 -5.472656 841.613281 -5.472656 863.546875 16.457031 C 885.472656 38.382812 885.472656 73.929688 863.546875 95.863281 L 518.148438 441.253906 C 511.726562 447.675781 511.726562 458.09375 518.148438 464.515625 C 524.574219 470.9375 534.980469 470.9375 541.40625 464.515625 L 801.859375 204.066406 C 819.730469 186.191406 848.714844 186.191406 866.59375 204.0625 C 875.179688 212.648438 880.003906 224.296875 880.003906 236.4375 C 880.035156 248.585938 875.207031 260.238281 866.597656 268.808594 L 311.609375 823.789062 C 280.480469 855.789062 238.914062 875.5625 194.441406 879.515625 C 189.898438 879.808594 185.347656 879.988281 180.832031 879.988281 Z M 643.5625 29.335938 C 639.199219 29.320312 635.011719 31.054688 631.925781 34.144531 L 76.949219 589.121094 C 49.945312 615.296875 33.210938 650.277344 29.777344 687.722656 C 23.347656 771.042969 85.679688 843.789062 168.992188 850.210938 C 176.734375 850.8125 184.507812 850.8125 192.257812 850.210938 C 229.707031 846.789062 264.695312 830.054688 290.867188 803.046875 L 845.855469 248.066406 C 848.945312 244.984375 850.679688 240.800781 850.664062 236.4375 C 850.671875 227.359375 843.316406 219.984375 834.230469 219.984375 C 829.867188 219.980469 825.683594 221.71875 822.59375 224.808594 L 562.148438 485.257812 C 544.253906 503.09375 515.304688 503.09375 497.410156 485.257812 C 479.5625 467.363281 479.5625 438.40625 497.410156 420.515625 L 842.804688 75.121094 C 853.503906 64.875 853.871094 47.886719 843.621094 37.191406 C 833.375 26.496094 816.390625 26.128906 805.691406 36.378906 C 805.417969 36.644531 805.144531 36.917969 804.878906 37.191406 L 633.707031 208.363281 C 615.601562 225.671875 587.074219 225.671875 568.96875 208.363281 C 551.089844 190.511719 551.070312 161.550781 568.917969 143.671875 C 568.9375 143.65625 568.949219 143.644531 568.96875 143.625 L 655.191406 57.402344 C 661.613281 50.984375 661.621094 40.574219 655.207031 34.148438 C 652.117188 31.0625 647.925781 29.328125 643.5625 29.335938 Z M 643.5625 29.335938 " style=" stroke:none;fill-rule:nonzero;fill:rgb(0%,0%,0%);fill-opacity:1;" />
<path d="M 220.007812 542.664062 C 211.90625 542.664062 205.34375 536.09375 205.34375 527.988281 C 205.34375 524.105469 206.890625 520.375 209.640625 517.625 L 414.96875 312.296875 C 420.796875 306.667969 430.082031 306.828125 435.710938 312.652344 C 441.195312 318.335938 441.195312 327.347656 435.710938 333.027344 L 230.371094 538.363281 C 227.625 541.117188 223.894531 542.664062 220.007812 542.664062 Z M 220.007812 542.664062 " style=" stroke:none;fill-rule:nonzero;fill:rgb(0%,0%,0%);fill-opacity:1;" />
<path d="M 469.335938 293.328125 C 461.234375 293.328125 454.671875 286.757812 454.675781 278.65625 C 454.675781 274.777344 456.21875 271.042969 458.964844 268.289062 L 488.304688 238.960938 C 494.128906 233.335938 503.414062 233.492188 509.035156 239.320312 C 514.527344 245.007812 514.527344 254.015625 509.035156 259.703125 L 479.703125 289.03125 C 476.953125 291.785156 473.226562 293.328125 469.335938 293.328125 Z M 469.335938 293.328125 " style=" stroke:none;fill-rule:nonzero;fill:rgb(0%,0%,0%);fill-opacity:1;" />
<path d="M 322.671875 571.992188 C 314.574219 571.992188 308.003906 565.425781 308.007812 557.328125 C 308.007812 553.4375 309.550781 549.707031 312.300781 546.960938 L 385.636719 473.625 C 391.457031 468 400.75 468.160156 406.375 473.984375 C 411.859375 479.671875 411.859375 488.679688 406.375 494.363281 L 333.039062 567.691406 C 330.292969 570.449219 326.5625 571.992188 322.671875 571.992188 Z M 322.671875 571.992188 " style=" stroke:none;fill-rule:nonzero;fill:rgb(0%,0%,0%);fill-opacity:1;" />
<path d="M 352 659.992188 C 343.902344 659.988281 337.335938 653.421875 337.335938 645.324219 C 337.347656 641.4375 338.882812 637.703125 341.636719 634.953125 L 400.304688 576.289062 C 406.132812 570.664062 415.414062 570.824219 421.039062 576.652344 C 426.53125 582.332031 426.53125 591.34375 421.039062 597.03125 L 362.375 655.695312 C 359.621094 658.445312 355.894531 659.992188 352 659.992188 Z M 352 659.992188 " style=" stroke:none;fill-rule:nonzero;fill:rgb(0%,0%,0%);fill-opacity:1;" />
</g>
</svg>