<?xml version="1.0" encoding="iso-8859-1"?>
<!-- Generator: Adobe Illustrator 19.0.0, SVG Export Plug-In . SVG Version: 6.00 Build 0)  -->
<svg version="1.1" id="Capa_1" xmlns="http://www.w3.org/2000/svg" xmlns:xlink="http://www.w3.org/1999/xlink" x="0px" y="0px"
	 viewBox="0 0 512 512" style="enable-background:new 0 0 512 512;" xml:space="preserve">
<g>
	<g>
		<path d="M96,206c-5.52,0-10,4.48-10,10s4.48,10,10,10s10-4.48,10-10S101.52,206,96,206z"/>
	</g>
</g>
<g>
	<g>
		<path d="M456,86C347.028,86,288.467,27.77,269.223,8.635c-3.917-3.896-5.884-5.851-7.956-7.135c-3.228-2-7.309-2-10.536,0
			c-1.425,0.883-2.573,2.004-5.346,4.714c-7.125,6.96-23.809,23.261-49.607,39.396C152.909,72.411,105.88,86,56,86
			c-5.523,0-10,4.477-10,10v131.19c0,62.98,19.868,122.975,57.458,173.5c40.764,54.777,93.917,94.158,149.668,110.888
			c0.937,0.281,1.906,0.422,2.874,0.422c0.968,0,1.937-0.141,2.874-0.422c55.751-16.73,108.904-56.111,149.669-110.889
			C446.132,350.165,466,290.17,466,227.19V96C466,90.477,461.523,86,456,86z M446,227.19c0,58.646-18.501,114.514-53.502,161.56
			C354.992,439.148,306.62,475.548,256,491.537c-50.62-15.989-98.992-52.389-136.497-102.786C84.501,341.704,66,285.836,66,227.19
			V105.83c49.975-1.707,97.155-16.238,140.383-43.262c24.182-15.125,40.808-30.308,49.666-38.83
			c20.972,20.83,80.789,78.74,189.951,82.108V227.19z"/>
	</g>
</g>
<g>
	<g>
		<path d="M417.101,123.891c-55.041-6.093-107.259-28.366-155.206-66.201c-3.59-2.833-8.642-2.87-12.272-0.091
			c-47.491,36.347-102.471,59.819-154.813,66.092c-5.027,0.603-8.81,4.867-8.81,9.929V176c0,5.523,4.477,10,10,10s10-4.477,10-10
			v-33.65c38.045-5.792,92.067-21.909,149.609-64.239c46.666,35.36,97.186,57.038,150.391,64.54v84.54
			c0,49.977-15.769,97.578-45.605,137.663c-28.574,38.431-64.609,66.524-104.395,81.434
			c-39.784-14.909-75.815-42.995-104.388-81.418c-24.073-32.345-39.285-70.412-43.992-110.087c-0.65-5.484-5.621-9.412-11.108-8.752
			c-5.484,0.65-9.403,5.624-8.752,11.108c5.118,43.144,21.65,84.525,47.806,119.669c31.744,42.687,72.234,73.652,117.094,89.548
			c1.08,0.383,2.21,0.574,3.34,0.574s2.26-0.191,3.34-0.574c44.863-15.897,85.357-46.87,117.102-89.565
			C408.863,333.232,426,281.501,426,227.19v-93.36C426,128.733,422.167,124.452,417.101,123.891z"/>
	</g>
</g>
<g>
	<g>
		<path d="M355.271,219.209c-1.177-3.62-4.306-6.259-8.073-6.806l-57.096-8.294l-25.524-51.734
			c-1.684-3.414-5.161-5.575-8.967-5.576c-3.806,0-7.283,2.161-8.967,5.574l-25.533,51.736l-57.097,8.294
			c-3.767,0.547-6.896,3.186-8.073,6.806c-1.176,3.62-0.195,7.594,2.531,10.251l41.315,40.271l-9.751,56.868
			c-0.644,3.751,0.899,7.543,3.979,9.78c1.742,1.266,3.805,1.91,5.878,1.91c1.592,0,3.19-0.379,4.653-1.149l51.065-26.853
			l51.055,26.852c3.37,1.771,7.453,1.478,10.532-0.76c3.08-2.237,4.623-6.029,3.979-9.781l-9.751-56.868l41.315-40.271
			C355.466,226.804,356.447,222.83,355.271,219.209z M293.7,259.079c-2.357,2.297-3.433,5.607-2.876,8.851l7.214,42.076
			l-37.774-19.866c-2.914-1.532-6.395-1.532-9.309,0l-37.785,19.869l7.215-42.078c0.557-3.244-0.519-6.554-2.876-8.851
			l-30.569-29.796l42.247-6.137c3.257-0.473,6.073-2.519,7.53-5.47l18.891-38.277l18.884,38.276c1.456,2.952,4.272,4.999,7.53,5.472
			l42.247,6.137L293.7,259.079z"/>
	</g>
</g>
<g>
</g>
<g>
</g>
<g>
</g>
<g>
</g>
<g>
</g>
<g>
</g>
<g>
</g>
<g>
</g>
<g>
</g>
<g>
</g>
<g>
</g>
<g>
</g>
<g>
</g>
<g>
</g>
<g>
</g>
</svg>
