<svg height="512pt" viewBox="0 0 512.03819 512" width="512pt" xmlns="http://www.w3.org/2000/svg"><path d="m492.84375 221.636719h-11.40625l-134.828125-135.902344 17.996094-18.140625c9.875-10.023438 9.875-26.121094 0-36.148438l-23.925781-24.148437c-10.066407-9.703125-26.007813-9.703125-36.070313 0l-83.824219 84.480469c-9.890625 10.019531-9.890625 26.128906 0 36.148437l23.953125 24.15625c4.765625 4.8125 11.257813 7.519531 18.03125 7.519531 6.773438 0 13.265625-2.707031 18.03125-7.519531l17.886719-18.011719 86.867188 87.566407h-121.003907v-17.066407c0-9.425781-7.640625-17.066406-17.066406-17.066406h-3.257813l-12.347656-24.703125c-2.878906-5.792969-8.796875-9.453125-15.265625-9.429687h-57.71875c-6.472656-.023438-12.390625 3.636718-15.269531 9.429687l-12.347656 24.703125h-3.257813c-9.425781 0-17.066406 7.640625-17.066406 17.066406v17.066407h-91.757813c-6.984374 0-13.417968 3.800781-16.785156 9.917969-3.402344 6.039062-3.1875 13.460937.554688 19.292968 1.328125 2.117188 2.695312 4.386719 4.128906 6.75 15.359375 25.371094 38.261719 63.078125 103.859375 66.140625v25.898438c.027344 23.554687 19.113281 42.640625 42.664063 42.667969h24.628906c-7.261719 35.507812-56.992188 68.265624-75.828125 68.265624-4.710938 0-8.53125 3.820313-8.53125 8.535157v17.066406c0 14.136719 11.460937 25.597656 25.597656 25.597656h59.734375c14.140625 0 25.601562-11.460937 25.601562-25.597656v-15.753906c1.613282-4.625 11.460938-26.914063 51.199219-26.914063 39.882813 0 49.65625 22.460938 51.199219 26.898438v15.769531c0 14.136719 11.460938 25.597656 25.601562 25.597656h59.730469c14.140625 0 25.601563-11.460937 25.601563-25.597656v-17.066406c0-4.714844-3.820313-8.535157-8.535156-8.535157-18.832032 0-68.5625-32.757812-75.824219-68.265624h24.625c23.554687-.027344 42.640625-19.113282 42.667969-42.667969v-25.898438c65.59375-3.0625 88.542968-40.769531 103.859374-66.140625 1.433594-2.363281 2.796876-4.632812 4.128907-6.75 3.742187-5.832031 3.957031-13.253906.554687-19.292968-3.371094-6.117188-9.800781-9.917969-16.785156-9.917969zm-224.160156-81.550781c-3.304688 3.175781-8.523438 3.175781-11.828125 0l-23.953125-24.152344c-3.320313-3.355469-3.320313-8.757813 0-12.117188l83.824218-84.476562c1.558594-1.589844 3.691407-2.484375 5.917969-2.484375 2.222657 0 4.355469.894531 5.917969 2.484375l23.953125 24.121094c3.308594 3.363281 3.308594 8.757812 0 12.117187l-23.964844 24.148437-18.207031 18.367188zm60.21875-36.472657 5.71875-5.761719 122.785156 123.785157h-47.789062l-98.898438-99.683594zm-170.007813 66.824219h57.71875l8.53125 17.066406h-74.785156zm-30.875 34.132812h119.464844v17.066407h-119.464844zm-106.316406 44.203126c-1.496094-2.464844-2.917969-4.828126-4.265625-7.03125-.382812-.59375-.382812-1.351563 0-1.945313.339844-.65625 1.015625-1.078125 1.757812-1.09375h91.757813v68.054687c-56.003906-2.917968-75.09375-34.578124-89.25-57.984374zm166.050781 237.398437c0 4.710937-3.820312 8.53125-8.535156 8.53125h-59.734375c-4.710937 0-8.53125-3.820313-8.53125-8.53125v-8.535156h76.800781zm213.332032 0c0 4.710937-3.820313 8.53125-8.535157 8.53125h-59.730469c-4.714843 0-8.535156-3.820313-8.535156-8.53125v-8.535156h76.800782zm-34.277344-25.601563h-45.226563c-5.515625-11.484374-21.914062-34.132812-65.539062-34.132812-43.621094 0-60.023438 22.648438-65.535157 34.132812h-45.226562c23.527344-15.90625 46.300781-41.199218 50.398438-68.265624h120.730468c4.09375 27.066406 26.871094 52.359374 50.398438 68.265624zm17.210937-110.933593c0 14.140625-11.460937 25.601562-25.601562 25.601562h-204.800781c-14.136719 0-25.597657-11.460937-25.597657-25.601562v-110.933594h256zm110.625-107.894531c-1.390625 2.203124-2.816406 4.566406-4.265625 7.03125-14.132812 23.40625-33.28125 55.066406-89.25 58.027343v-68.097656h91.714844c.773438-.015625 1.488281.410156 1.84375 1.09375.367188.601563.351562 1.359375-.042969 1.945313zm0 0"/><path d="m196.285156 255.769531h-42.667968c-4.710938 0-8.53125 3.820313-8.53125 8.535157v25.601562c0 4.710938 3.820312 8.53125 8.53125 8.53125 4.714843 0 8.535156-3.820312 8.535156-8.53125v-17.070312h34.132812c4.714844 0 8.535156-3.820313 8.535156-8.53125 0-4.714844-3.820312-8.535157-8.535156-8.535157zm0 0"/><path d="m247.484375 255.769531h-17.066406c-4.710938 0-8.53125 3.820313-8.53125 8.535157 0 4.710937 3.820312 8.53125 8.53125 8.53125h17.066406c4.714844 0 8.535156-3.820313 8.535156-8.53125 0-4.714844-3.820312-8.535157-8.535156-8.535157zm0 0"/><path d="m162.152344 119.238281c-4.710938 0-8.535156 3.820313-8.535156 8.53125 0 4.714844 3.824218 8.535157 8.535156 8.535157h17.066406c4.714844 0 8.535156-3.820313 8.535156-8.535157 0-4.710937-3.820312-8.53125-8.535156-8.53125zm0 0"/><path d="m193.785156 99.671875c3.332032-3.332031 3.332032-8.734375 0-12.066406l-8.53125-8.535157c-3.351562-3.234374-8.671875-3.1875-11.964844.105469-3.289062 3.292969-3.335937 8.613281-.101562 11.960938l8.53125 8.535156c3.332031 3.332031 8.734375 3.332031 12.066406 0zm0 0"/></svg>