<?xml version="1.0" encoding="iso-8859-1"?>
<!-- Generator: Adobe Illustrator 19.0.0, SVG Export Plug-In . SVG Version: 6.00 Build 0)  -->
<svg version="1.1" id="Capa_1" xmlns="http://www.w3.org/2000/svg" xmlns:xlink="http://www.w3.org/1999/xlink" x="0px" y="0px"
	 viewBox="0 0 512 512" style="enable-background:new 0 0 512 512;" xml:space="preserve">
<g>
	<g>
		<path d="M410.308,409.888l-92.053-77.247l-4.418-4.311c-4.375-16.009-14.347-29.724-27.682-38.903
			c4.971-3.173,8.284-8.724,8.284-15.047v-26.77c0-9.845-8.01-17.854-17.854-17.854h-26.728l22.3-175.001
			c0.012-0.093,0.008-0.185,0.016-0.278c0.015-0.161,0.039-0.319,0.043-0.482c0.001-0.053-0.006-0.104-0.006-0.157
			c0.001-0.136-0.009-0.27-0.015-0.404c-0.01-0.196-0.023-0.39-0.047-0.583c-0.018-0.138-0.042-0.273-0.068-0.409
			c-0.035-0.187-0.074-0.371-0.123-0.554c-0.036-0.135-0.075-0.267-0.118-0.399c-0.058-0.179-0.124-0.354-0.195-0.528
			c-0.053-0.128-0.106-0.255-0.166-0.381c-0.082-0.171-0.172-0.336-0.267-0.5c-0.068-0.119-0.134-0.238-0.209-0.353
			c-0.106-0.164-0.224-0.319-0.343-0.475c-0.08-0.104-0.155-0.211-0.24-0.311c-0.14-0.164-0.294-0.317-0.449-0.469
			c-0.08-0.079-0.153-0.163-0.237-0.238c-0.246-0.221-0.506-0.429-0.783-0.619L202.01,1.873c-3.622-2.476-8.319-2.5-11.968-0.058
			l-68.369,45.759c-0.284,0.19-0.55,0.4-0.802,0.624c-0.087,0.077-0.163,0.163-0.245,0.243c-0.158,0.154-0.315,0.308-0.458,0.474
			c-0.087,0.102-0.165,0.209-0.246,0.315c-0.122,0.158-0.242,0.317-0.351,0.484c-0.076,0.116-0.144,0.236-0.213,0.356
			c-0.097,0.168-0.19,0.338-0.273,0.514c-0.06,0.126-0.115,0.253-0.168,0.382c-0.074,0.18-0.14,0.361-0.199,0.547
			c-0.043,0.132-0.083,0.264-0.118,0.398c-0.05,0.191-0.089,0.383-0.124,0.578c-0.024,0.135-0.05,0.269-0.066,0.406
			c-0.025,0.203-0.035,0.409-0.044,0.615c-0.005,0.131-0.015,0.26-0.013,0.392c0,0.042-0.006,0.083-0.004,0.126
			c0.006,0.2,0.034,0.395,0.056,0.592c0.009,0.083,0.006,0.166,0.018,0.249l0.016,0.113c0,0,0,0.001,0,0.002l10.251,71.598
			c0.587,4.102,4.399,6.954,8.486,6.361c4.101-0.587,6.949-4.387,6.361-8.486l-8.061-56.303l53.75,31.549v130.051h-30.612
			l-10.549-73.671c-0.587-4.102-4.392-6.945-8.486-6.361c-4.101,0.587-6.949,4.387-6.361,8.486l10.244,71.547h-26.594
			c-9.845,0-17.854,8.009-17.854,17.854v26.77c0,9.299,7.148,16.951,16.237,17.772c-1.993,3.82-3.127,8.156-3.127,12.754
			c0,7.944,3.373,15.111,8.756,20.161c-5.383,5.052-8.756,12.222-8.756,20.169c0,7.946,3.372,15.115,8.754,20.167
			c-5.382,5.051-8.753,12.219-8.753,20.165c0,7.946,3.372,15.115,8.755,20.166c-5.383,5.051-8.755,12.22-8.755,20.167
			c0,15.256,12.411,27.666,27.666,27.666h16.332v21.927c0,9.462,7.698,17.16,17.16,17.16h46.89c9.462,0,17.159-7.698,17.159-17.16
			v-21.93h21.221l67.548,56.685c1.405,1.18,3.116,1.755,4.817,1.755c2.14,0,4.266-0.911,5.749-2.679
			c2.663-3.173,2.249-7.903-0.924-10.566l-69.639-58.439c-1.351-1.134-3.058-1.755-4.821-1.755h-23.949v-50.724
			c11.399,13.268,28.28,21.696,47.103,21.696c4.143,0,7.5-3.357,7.5-7.5c0-4.143-3.357-7.5-7.5-7.5
			c-25.923,0-47.019-21.049-47.103-46.951v-15.548c0-4.143-3.357-7.5-7.5-7.5c-0.001,0-0.001,0-0.002,0c-0.001,0-0.001,0-0.002,0
			H186.65c-11.121,0-20.169-9.048-20.169-20.169v-12.131h6.321c0.013,0,0.026-0.002,0.039-0.002h74.096
			c29.973,0,54.357,24.384,54.357,54.357v11.206c0,4.143,3.357,7.5,7.5,7.5c4.143,0,7.5-3.357,7.5-7.5v-7.221l84.371,70.801
			c1.405,1.18,3.116,1.755,4.817,1.755c2.141,0,4.266-0.911,5.749-2.679C413.895,417.28,413.481,412.55,410.308,409.888z
			 M234.735,229.756h-30.509V99.613l51.077-31.253L234.735,229.756z M139.952,53.39l56.007-37.485l54.957,37.554l-54.27,33.208
			L139.952,53.39z M163.621,438.561c-0.019,0-0.038,0.003-0.058,0.003H139.79c-6.984,0-12.667-5.682-12.667-12.667
			c0-6.984,5.683-12.667,12.667-12.667h33.011c6.984,0,12.666,5.683,12.666,12.667s-5.682,12.667-12.666,12.667h-9.122
			C163.659,438.564,163.64,438.561,163.621,438.561z M127.123,385.565c0-6.963,5.648-12.629,12.604-12.664
			c0.022,0,0.043,0.002,0.065,0.002h33.01c0.021,0,0.042-0.001,0.063-0.001c6.954,0.035,12.602,5.701,12.602,12.664
			c0,6.984-5.682,12.666-12.666,12.666H139.79C132.806,398.231,127.123,392.55,127.123,385.565z M191.712,405.732
			c5.383-5.051,8.755-12.22,8.755-20.166c0-7.945-3.371-15.113-8.751-20.163c5.383-5.052,8.756-12.222,8.756-20.169
			c0-1.93-0.225-3.836-0.619-5.7h22.475v7.894c-0.001,0.05,0.003,0.101,0.003,0.153v127.91c0,1.191-0.969,2.16-2.159,2.16h-46.89
			c-1.191,0-2.16-0.969-2.16-2.16v-21.927h1.68c15.255,0,27.665-12.411,27.665-27.666
			C200.466,417.951,197.094,410.783,191.712,405.732z M184.044,339.427c0.925,1.785,1.428,3.771,1.428,5.807
			c0,6.965-5.649,12.632-12.606,12.667c-0.022,0-0.043-0.002-0.065-0.002H139.79c-0.021,0-0.042,0.001-0.063,0.001
			c-6.956-0.035-12.605-5.701-12.605-12.666c0-6.986,5.684-12.671,12.67-12.671h25.864
			C170.865,336.451,177.186,338.922,184.044,339.427z M154.06,317.564h-14.269c-6.986,0-12.67-5.679-12.67-12.659
			c0-6.986,5.684-12.67,12.67-12.67h11.689v12.131C151.481,309.033,152.402,313.486,154.06,317.564z M279.438,274.38
			c0,1.573-1.28,2.854-2.854,2.854h-29.646h-85.369h-44.702c-1.573,0-2.854-1.28-2.854-2.854v-26.77c0-1.573,1.28-2.854,2.854-2.854
			h35.244h89.229h35.244c1.574,0,2.854,1.28,2.854,2.854V274.38z"/>
	</g>
</g>
<g>
	<g>
		<path d="M353.212,99.271c-4.143,0-7.5,3.357-7.5,7.5v16.354c0,4.143,3.358,7.5,7.5,7.5c4.143,0,7.5-3.357,7.5-7.5v-16.354
			C360.712,102.628,357.355,99.271,353.212,99.271z"/>
	</g>
</g>
<g>
	<g>
		<path d="M353.212,149.543c-4.143,0-7.5,3.357-7.5,7.5v16.354c0,4.142,3.358,7.5,7.5,7.5c4.143,0,7.5-3.357,7.5-7.5v-16.354
			C360.712,152.9,357.355,149.543,353.212,149.543z"/>
	</g>
</g>
<g>
	<g>
		<path d="M386.525,132.584h-16.354c-4.143,0-7.5,3.357-7.5,7.5c0,4.143,3.357,7.5,7.5,7.5h16.354c4.143,0,7.5-3.357,7.5-7.5
			C394.025,135.94,390.668,132.584,386.525,132.584z"/>
	</g>
</g>
<g>
	<g>
		<path d="M336.253,132.584H319.9c-4.143,0-7.5,3.357-7.5,7.5c0,4.143,3.357,7.5,7.5,7.5h16.354c4.143,0,7.5-3.357,7.5-7.5
			C343.753,135.94,340.396,132.584,336.253,132.584z"/>
	</g>
</g>
<g>
</g>
<g>
</g>
<g>
</g>
<g>
</g>
<g>
</g>
<g>
</g>
<g>
</g>
<g>
</g>
<g>
</g>
<g>
</g>
<g>
</g>
<g>
</g>
<g>
</g>
<g>
</g>
<g>
</g>
</svg>
