<?xml version="1.0" encoding="iso-8859-1"?>
<!-- Generator: Adobe Illustrator 19.0.0, SVG Export Plug-In . SVG Version: 6.00 Build 0)  -->
<svg version="1.1" id="Capa_1" xmlns="http://www.w3.org/2000/svg" xmlns:xlink="http://www.w3.org/1999/xlink" x="0px" y="0px"
	 viewBox="0 0 480.002 480.002" style="enable-background:new 0 0 480.002 480.002;" xml:space="preserve">
<g>
	<g>
		<path d="M193.739,239.042c-0.571-0.127-1.154-0.191-1.739-0.19H0v16h182.023l-12.914,58.141l-32.745,13.096l-28.787-14.393
			l-7.156,14.313l24.437,12.218l-27.804,48.657c-0.962,1.676-1.281,3.645-0.898,5.539l16,80l15.688-3.141l-15.414-77.062
			l29.133-50.977l37.406-14.961c2.453-0.986,4.265-3.115,4.844-5.695l16-72C200.771,244.273,198.052,240.001,193.739,239.042z"/>
	</g>
</g>
<g>
	<g>
		<path d="M335.422,118.844l-16,0.016l0.028,29.573c-34.965-27.489-80.225-38.262-123.825-29.472
			c-25.603,5.146-49.449,16.799-69.242,33.836l10.453,12.109c50.39-43.37,124.752-43.944,175.806-1.357L284.844,175.5l6.313,14.703
			l39.469-16.969c2.942-1.263,4.847-4.158,4.844-7.359L335.422,118.844z"/>
	</g>
</g>
<g>
	<g>
		<path d="M480,238.852h-48V106.235l46.773-74.328c2.325-3.698,1.254-8.577-2.406-10.961L456.734,8.149
			c-3.707-2.411-8.667-1.36-11.078,2.347c-0.021,0.033-0.042,0.066-0.063,0.099l-24.5,38.93
			c-7.362-16.068-26.356-23.125-42.424-15.763c-6.974,3.195-12.568,8.789-15.763,15.763l-24.5-38.93
			c-2.357-3.742-7.3-4.865-11.042-2.508c-0.033,0.021-0.066,0.042-0.099,0.063l-19.633,12.797c-3.66,2.384-4.731,7.263-2.406,10.961
			L352,106.235v132.617h-64c-4.418-0.002-8.001,3.577-8.003,7.995c0,0.585,0.064,1.168,0.19,1.739l16,72
			c0.579,2.58,2.39,4.71,4.844,5.695l37.82,15.125l36.359,50.906l-22.875,76.242l15.328,4.594l24-80
			c0.709-2.369,0.282-4.933-1.156-6.945l-40-56c-0.889-1.247-2.117-2.212-3.539-2.781l-36.078-14.43l-12.914-58.141H480V238.852z
			 M416,105.758v133.094h-16v-72h-16v72h-16l0.008-132.914c0.031-0.203,0.125-1.094,0.133-1.305
			c0.099-1.661-0.324-3.311-1.211-4.719l-43.969-69.859l6.234-4.063l38.094,60.523c2.252,3.589,6.914,4.796,10.625,2.75l0.922-0.523
			c0.229-0.146,0.467-0.279,0.711-0.398c4.068-1.725,5.967-6.421,4.242-10.489c-0.48-1.132-1.215-2.139-2.148-2.941
			c-3.572-2.988-5.638-7.405-5.641-12.062c0-8.837,7.163-16,16-16s16,7.163,16,16c-0.003,4.657-2.068,9.074-5.641,12.063
			c-2.051,1.806-3.038,4.534-2.617,7.234c0.419,2.726,2.189,5.055,4.703,6.188c0.246,0.123,0.486,0.259,0.719,0.406l0.922,0.523
			c3.71,2.048,8.374,0.841,10.625-2.75l38.094-60.523l6.234,4.063L417.07,99.914c-0.887,1.408-1.31,3.058-1.211,4.719
			C415.867,104.844,415.969,105.555,416,105.758z"/>
	</g>
</g>
<g>
	<g>
		<path d="M80,278.852c-1.73-0.001-3.414,0.562-4.797,1.602l-32,24l9.594,12.797l29.867-22.398H112v-16H80z"/>
	</g>
</g>
<g>
	<g>
		<path d="M16,431.485v-32.633H0v35.555c-0.003,1.888,0.664,3.715,1.883,5.156l24,28.445l12.234-10.313L16,431.485z"/>
	</g>
</g>
<g>
	<g>
		<rect x="0" y="366.852" width="16" height="16"/>
	</g>
</g>
<g>
	<g>
		<rect x="464" y="278.852" width="16" height="16"/>
	</g>
</g>
<g>
	<g>
		<rect x="464" y="447.092" width="16" height="23.72"/>
	</g>
</g>
<g>
	<g>
		<path d="M399.156,307.274c-0.877-1.753-2.367-3.124-4.188-3.852l-40-16l-5.937,14.859l37.172,14.867l22.641,45.281l14.313-7.156
			L399.156,307.274z"/>
	</g>
</g>
<g>
	<g>
		<path d="M80,158.852c-35.346,0-64,28.654-64,64h16c0-26.51,21.49-48,48-48s48,21.49,48,48h16
			C144,187.505,115.346,158.852,80,158.852z"/>
	</g>
</g>
<g>
	<g>
		<path d="M80,190.852c-17.673,0-32,14.327-32,32h16c0-8.837,7.163-16,16-16s16,7.163,16,16h16
			C112,205.179,97.673,190.852,80,190.852z"/>
	</g>
</g>
<g>
</g>
<g>
</g>
<g>
</g>
<g>
</g>
<g>
</g>
<g>
</g>
<g>
</g>
<g>
</g>
<g>
</g>
<g>
</g>
<g>
</g>
<g>
</g>
<g>
</g>
<g>
</g>
<g>
</g>
</svg>
